<svg width="797" height="56" viewBox="0 0 797 56" fill="none" xmlns="http://www.w3.org/2000/svg">
<path d="M763.6 0L705.625 6.91348e-07C704.071 7.09876e-07 702.581 0.617209 701.482 1.71586C700.384 2.8145 699.767 4.30459 699.767 5.85831L699.767 50.1032C699.767 51.6569 700.384 53.147 701.482 54.2456C702.581 55.3443 704.071 55.9615 705.625 55.9615L763.6 55.9615L763.6 0Z" fill="#FFB967" fill-opacity="0.68"/>
<path d="M697.028 36.5705L697.028 19.369L664.836 19.369L664.836 36.5705L697.028 36.5705Z" fill="#FFB967" fill-opacity="0.68"/>
<path d="M662.512 31.5912L662.512 24.3703L-6.10352e-05 24.3703L-6.0949e-05 31.5912L662.512 31.5912Z" fill="#FFB967" fill-opacity="0.68"/>
<path d="M766.478 18.2999C766.717 18.3638 766.963 18.3958 767.21 18.3951L794.071 18.3951C794.848 18.3951 795.593 18.0865 796.142 17.5372C796.691 16.9878 797 16.2428 797 15.4659L797 14.7995C797 14.0227 796.691 13.2776 796.142 12.7283C795.593 12.179 794.848 11.8704 794.071 11.8704L767.181 11.8704C766.934 11.8722 766.687 11.9067 766.449 11.9729L766.478 18.2999Z" fill="#FFB967" fill-opacity="0.68"/>
<path d="M766.478 43.9667C766.717 44.0305 766.963 44.0625 767.21 44.0619L794.071 44.0619C794.848 44.0619 795.593 43.7533 796.142 43.2039C796.691 42.6546 797 41.9096 797 41.1327L797 40.4736C797 39.6968 796.691 38.9517 796.142 38.4024C795.593 37.8531 794.848 37.5445 794.071 37.5445L767.181 37.5445C766.934 37.5438 766.688 37.5758 766.449 37.6397L766.478 43.9667Z" fill="#FFB967" fill-opacity="0.68"/>
</svg>
