<svg width="78" height="27" viewBox="0 0 78 27" fill="none" xmlns="http://www.w3.org/2000/svg">
<path d="M15.8495 26.5561L43.3612 26.5561C44.0985 26.5561 44.8057 26.2632 45.327 25.7419C45.8484 25.2205 46.1413 24.5134 46.1413 23.7761L46.1413 2.78003C46.1413 2.04272 45.8484 1.33561 45.327 0.814253C44.8057 0.292899 44.0985 7.96626e-06 43.3612 7.95747e-06L15.8495 7.62939e-06L15.8495 26.5561Z" fill="#F05018" fill-opacity="0.4"/>
<path d="M47.441 9.20189L47.441 17.3647L62.7172 17.3647L62.7172 9.20189L47.441 9.20189Z" fill="#F05018" fill-opacity="0.4"/>
<path d="M64.0022 11.5648L64.0022 14.9914L308.575 14.9914L308.575 11.5648L64.0022 11.5648Z" fill="#F05018" fill-opacity="0.4"/>
<path d="M14.4839 17.872C14.3706 17.8417 14.2537 17.8265 14.1364 17.8269L1.39001 17.8269C1.02136 17.8269 0.6678 17.9733 0.407123 18.234C0.146446 18.4947 2.47429e-08 18.8482 2.03468e-08 19.2169L1.65757e-08 19.5331C1.21795e-08 19.9018 0.146446 20.2553 0.407123 20.516C0.6678 20.7767 1.02136 20.9231 1.39001 20.9231L14.1503 20.9231C14.2678 20.9223 14.3846 20.9059 14.4978 20.8745L14.4839 17.872Z" fill="#F05018" fill-opacity="0.4"/>
<path d="M14.4839 5.69208C14.3706 5.66177 14.2537 5.64658 14.1364 5.6469L1.39001 5.6469C1.02136 5.6469 0.6678 5.79335 0.407123 6.05402C0.146446 6.3147 2.47015e-08 6.66826 2.03054e-08 7.03691L1.65758e-08 7.34967C1.21796e-08 7.71832 0.146446 8.07188 0.407123 8.33256C0.6678 8.59323 1.02136 8.73968 1.39001 8.73968L14.1503 8.73968C14.2676 8.74 14.3844 8.72481 14.4978 8.6945L14.4839 5.69208Z" fill="#F05018" fill-opacity="0.4"/>
</svg>
