<svg width="116" height="116" viewBox="0 0 116 116" fill="none" xmlns="http://www.w3.org/2000/svg">
<path d="M41.76 0H37.12V4.64H41.76V0Z" fill="#BA4D28"/>
<path d="M55.68 0H51.04V4.64H55.68V0Z" fill="#BA4D28"/>
<path d="M64.96 0H60.32V4.64H64.96V0Z" fill="#BA4D28"/>
<path d="M69.6 0H64.96V4.64H69.6V0Z" fill="#BA4D28"/>
<path d="M46.4 4.64H41.76V9.28H46.4V4.64Z" fill="#BA4D28"/>
<path d="M55.68 4.64H51.04V9.28H55.68V4.64Z" fill="#BA4D28"/>
<path d="M41.76 9.28H37.12V13.92H41.76V9.28Z" fill="#BA4D28"/>
<path d="M60.32 9.28H55.68V13.92H60.32V9.28Z" fill="#BA4D28"/>
<path d="M64.96 9.28H60.32V13.92H64.96V9.28Z" fill="#BA4D28"/>
<path d="M60.32 13.92H55.68V18.56H60.32V13.92Z" fill="#BA4D28"/>
<path d="M64.96 13.92H60.32V18.56H64.96V13.92Z" fill="#BA4D28"/>
<path d="M69.6 13.92H64.96V18.56H69.6V13.92Z" fill="#BA4D28"/>
<path d="M74.24 13.92H69.6V18.56H74.24V13.92Z" fill="#BA4D28"/>
<path d="M46.4 18.56H41.76V23.2H46.4V18.56Z" fill="#BA4D28"/>
<path d="M51.04 18.56H46.4V23.2H51.04V18.56Z" fill="#BA4D28"/>
<path d="M55.68 18.56H51.04V23.2H55.68V18.56Z" fill="#BA4D28"/>
<path d="M64.96 18.56H60.32V23.2H64.96V18.56Z" fill="#BA4D28"/>
<path d="M41.76 23.2H37.12V27.84H41.76V23.2Z" fill="#BA4D28"/>
<path d="M46.4 23.2H41.76V27.84H46.4V23.2Z" fill="#BA4D28"/>
<path d="M60.32 23.2H55.68V27.84H60.32V23.2Z" fill="#BA4D28"/>
<path d="M64.96 23.2H60.32V27.84H64.96V23.2Z" fill="#BA4D28"/>
<path d="M78.88 23.2H74.24V27.84H78.88V23.2Z" fill="#BA4D28"/>
<path d="M41.76 27.84H37.12V32.48H41.76V27.84Z" fill="#BA4D28"/>
<path d="M51.04 27.84H46.4V32.48H51.04V27.84Z" fill="#BA4D28"/>
<path d="M60.32 27.84H55.68V32.48H60.32V27.84Z" fill="#BA4D28"/>
<path d="M69.6 27.84H64.96V32.48H69.6V27.84Z" fill="#BA4D28"/>
<path d="M78.88 27.84H74.24V32.48H78.88V27.84Z" fill="#BA4D28"/>
<path d="M46.4 32.48H41.76V37.12H46.4V32.48Z" fill="#BA4D28"/>
<path d="M51.04 32.48H46.4V37.12H51.04V32.48Z" fill="#BA4D28"/>
<path d="M60.32 32.48H55.68V37.12H60.32V32.48Z" fill="#BA4D28"/>
<path d="M69.6 32.48H64.96V37.12H69.6V32.48Z" fill="#BA4D28"/>
<path d="M74.24 32.48H69.6V37.12H74.24V32.48Z" fill="#BA4D28"/>
<path d="M78.88 32.48H74.24V37.12H78.88V32.48Z" fill="#BA4D28"/>
<path d="M4.64 37.12H0V41.76H4.64V37.12Z" fill="#BA4D28"/>
<path d="M13.92 37.12H9.28001V41.76H13.92V37.12Z" fill="#BA4D28"/>
<path d="M32.48 37.12H27.84V41.76H32.48V37.12Z" fill="#BA4D28"/>
<path d="M37.12 37.12H32.48V41.76H37.12V37.12Z" fill="#BA4D28"/>
<path d="M60.32 37.12H55.68V41.76H60.32V37.12Z" fill="#BA4D28"/>
<path d="M78.88 37.12H74.24V41.76H78.88V37.12Z" fill="#BA4D28"/>
<path d="M92.8 37.12H88.16V41.76H92.8V37.12Z" fill="#BA4D28"/>
<path d="M106.72 37.12H102.08V41.76H106.72V37.12Z" fill="#BA4D28"/>
<path d="M116 37.12H111.36V41.76H116V37.12Z" fill="#BA4D28"/>
<path d="M13.92 41.76H9.28001V46.4H13.92V41.76Z" fill="#BA4D28"/>
<path d="M18.56 41.76H13.92V46.4H18.56V41.76Z" fill="#BA4D28"/>
<path d="M23.2 41.76H18.56V46.4H23.2V41.76Z" fill="#BA4D28"/>
<path d="M41.76 41.76H37.12V46.4H41.76V41.76Z" fill="#BA4D28"/>
<path d="M51.04 41.76H46.4V46.4H51.04V41.76Z" fill="#BA4D28"/>
<path d="M55.68 41.76H51.04V46.4H55.68V41.76Z" fill="#BA4D28"/>
<path d="M64.96 41.76H60.32V46.4H64.96V41.76Z" fill="#BA4D28"/>
<path d="M74.24 41.76H69.6V46.4H74.24V41.76Z" fill="#BA4D28"/>
<path d="M78.88 41.76H74.24V46.4H78.88V41.76Z" fill="#BA4D28"/>
<path d="M83.52 41.76H78.88V46.4H83.52V41.76Z" fill="#BA4D28"/>
<path d="M88.16 41.76H83.52V46.4H88.16V41.76Z" fill="#BA4D28"/>
<path d="M92.8 41.76H88.16V46.4H92.8V41.76Z" fill="#BA4D28"/>
<path d="M102.08 41.76H97.44V46.4H102.08V41.76Z" fill="#BA4D28"/>
<path d="M111.36 41.76H106.72V46.4H111.36V41.76Z" fill="#BA4D28"/>
<path d="M116 41.76H111.36V46.4H116V41.76Z" fill="#BA4D28"/>
<path d="M9.27998 46.4H4.63998V51.04H9.27998V46.4Z" fill="#BA4D28"/>
<path d="M13.92 46.4H9.28001V51.04H13.92V46.4Z" fill="#BA4D28"/>
<path d="M18.56 46.4H13.92V51.04H18.56V46.4Z" fill="#BA4D28"/>
<path d="M23.2 46.4H18.56V51.04H23.2V46.4Z" fill="#BA4D28"/>
<path d="M32.48 46.4H27.84V51.04H32.48V46.4Z" fill="#BA4D28"/>
<path d="M41.76 46.4H37.12V51.04H41.76V46.4Z" fill="#BA4D28"/>
<path d="M55.68 46.4H51.04V51.04H55.68V46.4Z" fill="#BA4D28"/>
<path d="M60.32 46.4H55.68V51.04H60.32V46.4Z" fill="#BA4D28"/>
<path d="M69.6 46.4H64.96V51.04H69.6V46.4Z" fill="#BA4D28"/>
<path d="M74.24 46.4H69.6V51.04H74.24V46.4Z" fill="#BA4D28"/>
<path d="M78.88 46.4H74.24V51.04H78.88V46.4Z" fill="#BA4D28"/>
<path d="M88.16 46.4H83.52V51.04H88.16V46.4Z" fill="#BA4D28"/>
<path d="M102.08 46.4H97.44V51.04H102.08V46.4Z" fill="#BA4D28"/>
<path d="M106.72 46.4H102.08V51.04H106.72V46.4Z" fill="#BA4D28"/>
<path d="M116 46.4H111.36V51.04H116V46.4Z" fill="#BA4D28"/>
<path d="M4.64 51.04H0V55.68H4.64V51.04Z" fill="#BA4D28"/>
<path d="M9.27998 51.04H4.63998V55.68H9.27998V51.04Z" fill="#BA4D28"/>
<path d="M13.92 51.04H9.28001V55.68H13.92V51.04Z" fill="#BA4D28"/>
<path d="M23.2 51.04H18.56V55.68H23.2V51.04Z" fill="#BA4D28"/>
<path d="M27.84 51.04H23.2V55.68H27.84V51.04Z" fill="#BA4D28"/>
<path d="M37.12 51.04H32.48V55.68H37.12V51.04Z" fill="#BA4D28"/>
<path d="M41.76 51.04H37.12V55.68H41.76V51.04Z" fill="#BA4D28"/>
<path d="M51.04 51.04H46.4V55.68H51.04V51.04Z" fill="#BA4D28"/>
<path d="M55.68 51.04H51.04V55.68H55.68V51.04Z" fill="#BA4D28"/>
<path d="M69.6 51.04H64.96V55.68H69.6V51.04Z" fill="#BA4D28"/>
<path d="M78.88 51.04H74.24V55.68H78.88V51.04Z" fill="#BA4D28"/>
<path d="M83.52 51.04H78.88V55.68H83.52V51.04Z" fill="#BA4D28"/>
<path d="M88.16 51.04H83.52V55.68H88.16V51.04Z" fill="#BA4D28"/>
<path d="M92.8 51.04H88.16V55.68H92.8V51.04Z" fill="#BA4D28"/>
<path d="M102.08 51.04H97.44V55.68H102.08V51.04Z" fill="#BA4D28"/>
<path d="M9.27998 55.68H4.63998V60.32H9.27998V55.68Z" fill="#BA4D28"/>
<path d="M18.56 55.68H13.92V60.32H18.56V55.68Z" fill="#BA4D28"/>
<path d="M27.84 55.68H23.2V60.32H27.84V55.68Z" fill="#BA4D28"/>
<path d="M32.48 55.68H27.84V60.32H32.48V55.68Z" fill="#BA4D28"/>
<path d="M37.12 55.68H32.48V60.32H37.12V55.68Z" fill="#BA4D28"/>
<path d="M51.04 55.68H46.4V60.32H51.04V55.68Z" fill="#BA4D28"/>
<path d="M69.6 55.68H64.96V60.32H69.6V55.68Z" fill="#BA4D28"/>
<path d="M78.88 55.68H74.24V60.32H78.88V55.68Z" fill="#BA4D28"/>
<path d="M88.16 55.68H83.52V60.32H88.16V55.68Z" fill="#BA4D28"/>
<path d="M116 55.68H111.36V60.32H116V55.68Z" fill="#BA4D28"/>
<path d="M9.27998 60.32H4.63998V64.96H9.27998V60.32Z" fill="#BA4D28"/>
<path d="M37.12 60.32H32.48V64.96H37.12V60.32Z" fill="#BA4D28"/>
<path d="M41.76 60.32H37.12V64.96H41.76V60.32Z" fill="#BA4D28"/>
<path d="M51.04 60.32H46.4V64.96H51.04V60.32Z" fill="#BA4D28"/>
<path d="M64.96 60.32H60.32V64.96H64.96V60.32Z" fill="#BA4D28"/>
<path d="M74.24 60.32H69.6V64.96H74.24V60.32Z" fill="#BA4D28"/>
<path d="M78.88 60.32H74.24V64.96H78.88V60.32Z" fill="#BA4D28"/>
<path d="M83.52 60.32H78.88V64.96H83.52V60.32Z" fill="#BA4D28"/>
<path d="M88.16 60.32H83.52V64.96H88.16V60.32Z" fill="#BA4D28"/>
<path d="M92.8 60.32H88.16V64.96H92.8V60.32Z" fill="#BA4D28"/>
<path d="M111.36 60.32H106.72V64.96H111.36V60.32Z" fill="#BA4D28"/>
<path d="M116 60.32H111.36V64.96H116V60.32Z" fill="#BA4D28"/>
<path d="M4.64 64.96H0V69.6H4.64V64.96Z" fill="#BA4D28"/>
<path d="M9.27998 64.96H4.63998V69.6H9.27998V64.96Z" fill="#BA4D28"/>
<path d="M13.92 64.96H9.28001V69.6H13.92V64.96Z" fill="#BA4D28"/>
<path d="M32.48 64.96H27.84V69.6H32.48V64.96Z" fill="#BA4D28"/>
<path d="M46.4 64.96H41.76V69.6H46.4V64.96Z" fill="#BA4D28"/>
<path d="M51.04 64.96H46.4V69.6H51.04V64.96Z" fill="#BA4D28"/>
<path d="M55.68 64.96H51.04V69.6H55.68V64.96Z" fill="#BA4D28"/>
<path d="M74.24 64.96H69.6V69.6H74.24V64.96Z" fill="#BA4D28"/>
<path d="M88.16 64.96H83.52V69.6H88.16V64.96Z" fill="#BA4D28"/>
<path d="M102.08 64.96H97.44V69.6H102.08V64.96Z" fill="#BA4D28"/>
<path d="M106.72 64.96H102.08V69.6H106.72V64.96Z" fill="#BA4D28"/>
<path d="M116 64.96H111.36V69.6H116V64.96Z" fill="#BA4D28"/>
<path d="M13.92 69.6H9.28001V74.24H13.92V69.6Z" fill="#BA4D28"/>
<path d="M23.2 69.6H18.56V74.24H23.2V69.6Z" fill="#BA4D28"/>
<path d="M27.84 69.6H23.2V74.24H27.84V69.6Z" fill="#BA4D28"/>
<path d="M37.12 69.6H32.48V74.24H37.12V69.6Z" fill="#BA4D28"/>
<path d="M51.04 69.6H46.4V74.24H51.04V69.6Z" fill="#BA4D28"/>
<path d="M83.52 69.6H78.88V74.24H83.52V69.6Z" fill="#BA4D28"/>
<path d="M88.16 69.6H83.52V74.24H88.16V69.6Z" fill="#BA4D28"/>
<path d="M92.8 69.6H88.16V74.24H92.8V69.6Z" fill="#BA4D28"/>
<path d="M97.44 69.6H92.8V74.24H97.44V69.6Z" fill="#BA4D28"/>
<path d="M102.08 69.6H97.44V74.24H102.08V69.6Z" fill="#BA4D28"/>
<path d="M4.64 74.24H0V78.88H4.64V74.24Z" fill="#BA4D28"/>
<path d="M9.27998 74.24H4.63998V78.88H9.27998V74.24Z" fill="#BA4D28"/>
<path d="M32.48 74.24H27.84V78.88H32.48V74.24Z" fill="#BA4D28"/>
<path d="M41.76 74.24H37.12V78.88H41.76V74.24Z" fill="#BA4D28"/>
<path d="M46.4 74.24H41.76V78.88H46.4V74.24Z" fill="#BA4D28"/>
<path d="M55.68 74.24H51.04V78.88H55.68V74.24Z" fill="#BA4D28"/>
<path d="M60.32 74.24H55.68V78.88H60.32V74.24Z" fill="#BA4D28"/>
<path d="M78.88 74.24H74.24V78.88H78.88V74.24Z" fill="#BA4D28"/>
<path d="M83.52 74.24H78.88V78.88H83.52V74.24Z" fill="#BA4D28"/>
<path d="M88.16 74.24H83.52V78.88H88.16V74.24Z" fill="#BA4D28"/>
<path d="M92.8 74.24H88.16V78.88H92.8V74.24Z" fill="#BA4D28"/>
<path d="M97.44 74.24H92.8V78.88H97.44V74.24Z" fill="#BA4D28"/>
<path d="M111.36 74.24H106.72V78.88H111.36V74.24Z" fill="#BA4D28"/>
<path d="M41.76 78.88H37.12V83.52H41.76V78.88Z" fill="#BA4D28"/>
<path d="M46.4 78.88H41.76V83.52H46.4V78.88Z" fill="#BA4D28"/>
<path d="M60.32 78.88H55.68V83.52H60.32V78.88Z" fill="#BA4D28"/>
<path d="M69.6 78.88H64.96V83.52H69.6V78.88Z" fill="#BA4D28"/>
<path d="M78.88 78.88H74.24V83.52H78.88V78.88Z" fill="#BA4D28"/>
<path d="M97.44 78.88H92.8V83.52H97.44V78.88Z" fill="#BA4D28"/>
<path d="M116 78.88H111.36V83.52H116V78.88Z" fill="#BA4D28"/>
<path d="M41.76 83.52H37.12V88.16H41.76V83.52Z" fill="#BA4D28"/>
<path d="M46.4 83.52H41.76V88.16H46.4V83.52Z" fill="#BA4D28"/>
<path d="M60.32 83.52H55.68V88.16H60.32V83.52Z" fill="#BA4D28"/>
<path d="M69.6 83.52H64.96V88.16H69.6V83.52Z" fill="#BA4D28"/>
<path d="M78.88 83.52H74.24V88.16H78.88V83.52Z" fill="#BA4D28"/>
<path d="M88.16 83.52H83.52V88.16H88.16V83.52Z" fill="#BA4D28"/>
<path d="M97.44 83.52H92.8V88.16H97.44V83.52Z" fill="#BA4D28"/>
<path d="M116 83.52H111.36V88.16H116V83.52Z" fill="#BA4D28"/>
<path d="M46.4 88.16H41.76V92.8H46.4V88.16Z" fill="#BA4D28"/>
<path d="M51.04 88.16H46.4V92.8H51.04V88.16Z" fill="#BA4D28"/>
<path d="M55.68 88.16H51.04V92.8H55.68V88.16Z" fill="#BA4D28"/>
<path d="M60.32 88.16H55.68V92.8H60.32V88.16Z" fill="#BA4D28"/>
<path d="M74.24 88.16H69.6V92.8H74.24V88.16Z" fill="#BA4D28"/>
<path d="M78.88 88.16H74.24V92.8H78.88V88.16Z" fill="#BA4D28"/>
<path d="M97.44 88.16H92.8V92.8H97.44V88.16Z" fill="#BA4D28"/>
<path d="M46.4 92.8H41.76V97.44H46.4V92.8Z" fill="#BA4D28"/>
<path d="M60.32 92.8H55.68V97.44H60.32V92.8Z" fill="#BA4D28"/>
<path d="M74.24 92.8H69.6V97.44H74.24V92.8Z" fill="#BA4D28"/>
<path d="M78.88 92.8H74.24V97.44H78.88V92.8Z" fill="#BA4D28"/>
<path d="M83.52 92.8H78.88V97.44H83.52V92.8Z" fill="#BA4D28"/>
<path d="M88.16 92.8H83.52V97.44H88.16V92.8Z" fill="#BA4D28"/>
<path d="M92.8 92.8H88.16V97.44H92.8V92.8Z" fill="#BA4D28"/>
<path d="M97.44 92.8H92.8V97.44H97.44V92.8Z" fill="#BA4D28"/>
<path d="M111.36 92.8H106.72V97.44H111.36V92.8Z" fill="#BA4D28"/>
<path d="M46.4 97.44H41.76V102.08H46.4V97.44Z" fill="#BA4D28"/>
<path d="M69.6 97.44H64.96V102.08H69.6V97.44Z" fill="#BA4D28"/>
<path d="M74.24 97.44H69.6V102.08H74.24V97.44Z" fill="#BA4D28"/>
<path d="M97.44 97.44H92.8V102.08H97.44V97.44Z" fill="#BA4D28"/>
<path d="M106.72 97.44H102.08V102.08H106.72V97.44Z" fill="#BA4D28"/>
<path d="M111.36 97.44H106.72V102.08H111.36V97.44Z" fill="#BA4D28"/>
<path d="M41.76 102.08H37.12V106.72H41.76V102.08Z" fill="#BA4D28"/>
<path d="M55.68 102.08H51.04V106.72H55.68V102.08Z" fill="#BA4D28"/>
<path d="M64.96 102.08H60.32V106.72H64.96V102.08Z" fill="#BA4D28"/>
<path d="M83.52 102.08H78.88V106.72H83.52V102.08Z" fill="#BA4D28"/>
<path d="M92.8 102.08H88.16V106.72H92.8V102.08Z" fill="#BA4D28"/>
<path d="M97.44 102.08H92.8V106.72H97.44V102.08Z" fill="#BA4D28"/>
<path d="M102.08 102.08H97.44V106.72H102.08V102.08Z" fill="#BA4D28"/>
<path d="M111.36 102.08H106.72V106.72H111.36V102.08Z" fill="#BA4D28"/>
<path d="M116 102.08H111.36V106.72H116V102.08Z" fill="#BA4D28"/>
<path d="M55.68 106.72H51.04V111.36H55.68V106.72Z" fill="#BA4D28"/>
<path d="M60.32 106.72H55.68V111.36H60.32V106.72Z" fill="#BA4D28"/>
<path d="M69.6 106.72H64.96V111.36H69.6V106.72Z" fill="#BA4D28"/>
<path d="M78.88 106.72H74.24V111.36H78.88V106.72Z" fill="#BA4D28"/>
<path d="M83.52 106.72H78.88V111.36H83.52V106.72Z" fill="#BA4D28"/>
<path d="M88.16 106.72H83.52V111.36H88.16V106.72Z" fill="#BA4D28"/>
<path d="M92.8 106.72H88.16V111.36H92.8V106.72Z" fill="#BA4D28"/>
<path d="M97.44 106.72H92.8V111.36H97.44V106.72Z" fill="#BA4D28"/>
<path d="M41.76 111.36H37.12V116H41.76V111.36Z" fill="#BA4D28"/>
<path d="M46.4 111.36H41.76V116H46.4V111.36Z" fill="#BA4D28"/>
<path d="M51.04 111.36H46.4V116H51.04V111.36Z" fill="#BA4D28"/>
<path d="M60.32 111.36H55.68V116H60.32V111.36Z" fill="#BA4D28"/>
<path d="M69.6 111.36H64.96V116H69.6V111.36Z" fill="#BA4D28"/>
<path d="M78.88 111.36H74.24V116H78.88V111.36Z" fill="#BA4D28"/>
<path d="M83.52 111.36H78.88V116H83.52V111.36Z" fill="#BA4D28"/>
<path d="M102.08 111.36H97.44V116H102.08V111.36Z" fill="#BA4D28"/>
<path d="M116 111.36H111.36V116H116V111.36Z" fill="#BA4D28"/>
<path d="M27.608 0H4.872H0V4.872V27.608V32.48H4.872H27.608H32.48V27.608V4.872V0H27.608ZM27.608 27.608H4.872V4.872H27.608V27.608Z" fill="#BA4D28"/>
<path d="M111.128 0H88.392H83.52V4.872V27.608V32.48H88.392H111.128H116V27.608V4.872V0H111.128ZM111.128 27.608H88.392V4.872H111.128V27.608Z" fill="#BA4D28"/>
<path d="M27.608 83.52H4.872H0V88.392V111.128V116H4.872H27.608H32.48V111.128V88.392V83.52H27.608ZM27.608 111.128H4.872V88.392H27.608V111.128Z" fill="#BA4D28"/>
<path d="M23.2 9.28H9.28001V23.2H23.2V9.28Z" fill="#BA4D28"/>
<path d="M106.72 9.28H92.8V23.2H106.72V9.28Z" fill="#BA4D28"/>
<path d="M23.2 92.8H9.28001V106.72H23.2V92.8Z" fill="#BA4D28"/>
</svg>
