<svg width="54" height="44" viewBox="0 0 54 44" fill="none" xmlns="http://www.w3.org/2000/svg">
<path fill-rule="evenodd" clip-rule="evenodd" d="M3.71139 18.944C18.2075 12.7344 27.8732 8.64025 32.7083 6.66157C46.5182 1.01731 49.4026 0.0370842 51.2575 0.000610831C51.9453 -0.0125348 52.62 0.186788 53.1866 0.570508C53.5842 0.907535 53.8376 1.37977 53.8961 1.89267C53.996 2.53054 54.024 3.1773 53.9796 3.8212C53.233 11.5718 49.9915 30.3055 48.3453 38.9633C47.6497 42.6107 46.277 43.8553 44.9461 43.9784C42.0617 44.2383 39.8451 42.1 37.0627 40.2992C32.6851 37.477 30.2135 35.74 25.9657 32.968C21.0548 29.7766 24.2406 28.0395 27.0369 25.1855C27.7696 24.4378 40.4851 13.0581 40.7355 12.0277C40.7685 11.8756 40.7647 11.7179 40.7244 11.5675C40.6841 11.417 40.6085 11.2779 40.5036 11.1615C40.3514 11.0679 40.1791 11.0106 40.0004 10.994C39.8217 10.9774 39.6415 11.0019 39.4741 11.0657C39.0382 11.16 32.0483 15.7024 18.5043 24.6931C16.5196 26.0335 14.7219 26.687 13.1112 26.6536C11.3351 26.6125 7.92203 25.6642 5.3808 24.8299C2.26918 23.836 -0.18392 23.3117 0.0108457 21.6385C0.125232 20.7631 1.35874 19.8649 3.71139 18.944Z" fill="white"/>
</svg>
