<svg width="62" height="64" viewBox="0 0 62 64" fill="none" xmlns="http://www.w3.org/2000/svg">
<path d="M54.3385 6.20713C52.7623 4.74563 46.3719 0.108956 32.1409 0.0459114C32.1409 0.0459114 15.3595 -0.96853 7.1808 6.53956C2.59571 11.0903 1.02531 17.7558 0.876299 26.0262C0.727283 34.2966 0.486565 49.7713 15.4168 53.9723V60.38C15.4168 60.38 15.3193 62.9706 17.0273 63.5036C19.0906 64.1398 20.3056 62.1682 22.2772 60.0648C23.3604 58.9185 24.8563 57.1991 25.9797 55.8751C36.193 56.7348 44.0392 54.769 44.9333 54.4767C46.9966 53.8119 58.6599 52.316 60.557 36.8298C62.4942 20.8508 59.5884 10.7578 54.3385 6.20713ZM56.0579 35.6664C54.4588 48.5906 44.9963 49.4216 43.254 49.9661C37.9209 51.2666 32.4187 51.7345 26.9425 51.3531C26.9425 51.3531 20.4948 59.1478 18.4773 61.1767C18.3639 61.3107 18.2196 61.4152 18.0569 61.4811C17.8941 61.547 17.7178 61.5723 17.5431 61.5549C17.1992 61.469 17.1018 61.062 17.1075 60.4602C17.1075 59.6005 17.1591 49.8114 17.1591 49.8114C4.5501 46.3038 5.27225 33.1274 5.41554 26.2268C5.55882 19.3262 6.85411 13.6694 10.7056 9.86948C17.6233 3.59937 31.8773 4.53932 31.8773 4.53932C43.9131 4.5909 49.6846 8.21312 51.02 9.42817C55.4618 13.2338 57.7257 22.3295 56.0693 35.6606L56.0579 35.6664Z" fill="white"/>
<path d="M37.9983 26.4618C37.7923 26.4621 37.594 26.383 37.4447 26.2411C37.2953 26.0992 37.2062 25.9053 37.1959 25.6995C37.0584 22.9657 35.7746 21.6245 33.1496 21.487C32.9368 21.4763 32.7369 21.3816 32.594 21.2236C32.451 21.0656 32.3767 20.8573 32.3873 20.6444C32.398 20.4316 32.4927 20.2318 32.6507 20.0888C32.8087 19.9459 33.017 19.8715 33.2298 19.8822C36.6686 20.0656 38.623 22.0486 38.8007 25.6135C38.8101 25.826 38.7353 26.0337 38.5926 26.1914C38.4499 26.3491 38.2508 26.4442 38.0384 26.4561L37.9983 26.4618Z" fill="white"/>
<path d="M42.1249 27.8488C41.9116 27.8428 41.7093 27.7526 41.5622 27.598C41.415 27.4434 41.3351 27.2368 41.3397 27.0235C41.4121 25.7859 41.237 24.5463 40.8247 23.3772C40.4124 22.2081 39.771 21.1329 38.9383 20.2146C37.2647 18.3863 34.9722 17.3948 31.9288 17.1712C31.8234 17.1637 31.7206 17.1355 31.6261 17.0882C31.5316 17.041 31.4474 16.9755 31.3782 16.8957C31.309 16.8159 31.2562 16.7232 31.2229 16.623C31.1895 16.5227 31.1762 16.4169 31.1837 16.3115C31.1912 16.2062 31.2195 16.1033 31.2667 16.0088C31.314 15.9144 31.3794 15.8301 31.4593 15.7609C31.5391 15.6918 31.6318 15.639 31.732 15.6056C31.8322 15.5722 31.9381 15.5589 32.0434 15.5665C35.4822 15.8129 38.1875 17.0165 40.1247 19.1314C41.0944 20.2014 41.8433 21.4525 42.3282 22.8127C42.8131 24.173 43.0245 25.6157 42.9502 27.0578C42.948 27.164 42.9249 27.2686 42.8822 27.3658C42.8395 27.463 42.7781 27.5509 42.7014 27.6243C42.6248 27.6978 42.5344 27.7554 42.4355 27.7939C42.3366 27.8324 42.231 27.8511 42.1249 27.8488Z" fill="white"/>
<path d="M46.3546 29.4994C46.1428 29.4994 45.9396 29.4157 45.7893 29.2664C45.639 29.1172 45.5538 28.9145 45.5522 28.7027C45.5121 23.8483 44.0564 19.9853 41.2193 17.24C39.8069 15.8658 38.1359 14.7854 36.3031 14.0613C34.4703 13.3372 32.5121 12.9839 30.5418 13.0217C30.34 13.0047 30.1519 12.9125 30.0148 12.7633C29.8777 12.6142 29.8017 12.419 29.8017 12.2165C29.8017 12.0139 29.8777 11.8187 30.0148 11.6696C30.1519 11.5205 30.34 11.4283 30.5418 11.4112C32.7177 11.3652 34.8811 11.7514 36.9068 12.5473C38.9324 13.3432 40.7801 14.533 42.3427 16.0479C45.5007 19.1256 47.1169 23.3726 47.157 28.6569C47.1586 28.7625 47.1391 28.8673 47.0997 28.9653C47.0604 29.0633 47.0019 29.1524 46.9278 29.2276C46.8537 29.3028 46.7653 29.3625 46.6679 29.4033C46.5705 29.444 46.466 29.465 46.3604 29.465L46.3546 29.4994Z" fill="white"/>
<path d="M33.3502 36.4401C33.6673 36.4602 33.985 36.4117 34.2817 36.2979C34.5784 36.1842 34.8471 36.0079 35.0696 35.781L36.2617 34.2908C36.671 33.8377 37.2269 33.5434 37.8317 33.4595C38.4366 33.3757 39.0516 33.5077 39.5687 33.8323C40.5844 34.4076 41.5696 35.0351 42.5204 35.7122C43.4145 36.3771 45.2542 37.9073 45.26 37.9073C45.687 38.2605 45.9716 38.7565 46.0611 39.3033C46.1507 39.8502 46.0391 40.4109 45.7471 40.8819C45.0881 42.021 44.2524 43.0483 43.2712 43.9253C42.5698 44.5649 41.6976 44.987 40.7608 45.1403C40.639 45.1545 40.5159 45.1545 40.394 45.1403C40.0321 45.1425 39.6721 45.0864 39.328 44.9741V44.934C38.0614 44.5786 35.9465 43.6845 32.4504 41.7416C30.4014 40.6557 28.4494 39.3959 26.6158 37.9761C25.7021 37.2641 24.8313 36.4986 24.0081 35.6836L23.9164 35.5976L23.8304 35.5059L23.7444 35.4199L23.6527 35.3339C22.8407 34.508 22.0753 33.6374 21.3602 32.7262C19.9111 30.9094 18.6188 28.9729 17.4972 26.9375C15.5543 23.4184 14.6315 21.3093 14.3049 20.0599H14.2647C14.1543 19.7154 14.1001 19.3555 14.1043 18.9938C14.0898 18.872 14.0898 18.7489 14.1043 18.627C14.2545 17.6655 14.6829 16.7689 15.3365 16.0479C16.2132 15.0664 17.2405 14.2307 18.3799 13.5719C18.8496 13.2809 19.4088 13.1693 19.9543 13.2578C20.4998 13.3462 20.995 13.6288 21.3487 14.0534C21.3487 14.0534 22.8847 15.8989 23.5438 16.793C24.2029 17.6871 24.8964 18.7015 25.4696 19.716C25.792 20.2338 25.9227 20.8483 25.8389 21.4525C25.7551 22.0567 25.4622 22.6124 25.0111 23.023L23.5152 24.2094C23.2893 24.4323 23.114 24.7013 23.0013 24.9979C22.8886 25.2946 22.841 25.6121 22.8618 25.9288C22.8618 25.9288 25.0798 34.3252 33.3502 36.4401Z" fill="white"/>
</svg>
