<svg width="72" height="43" viewBox="0 0 72 43" fill="none" xmlns="http://www.w3.org/2000/svg">
<path fill-rule="evenodd" clip-rule="evenodd" d="M10.5987 0.00323016H2.70164C0.445325 0.00323016 0 1.06591 0 2.24202C0 4.33753 2.66601 14.7434 12.4335 28.5105C18.9649 37.9075 28.1149 43 36.4573 43C41.4627 43 42.0862 41.8716 42.0862 39.9194V32.8389C42.0862 30.5762 42.5612 30.1225 44.1466 30.1225C45.3341 30.1225 47.3173 30.7195 51.9902 35.2388C57.3341 40.612 58.2129 43 61.2114 43H69.0907C71.3411 43 72.4693 41.8716 71.8161 39.6388C71.163 37.406 68.5563 34.1821 65.1719 30.3553C63.3371 28.1762 60.582 25.8299 59.7508 24.6538C58.5632 23.1434 58.9136 22.4688 59.7508 21.1315C59.7508 21.1315 69.346 7.53752 70.3495 2.92859C70.8483 1.24502 70.3495 0.0151684 67.9744 0.0151684H60.113C59.3776 -0.0360048 58.6457 0.15474 58.0277 0.558606C57.4096 0.962471 56.939 1.55753 56.6869 2.25396C56.6869 2.25396 52.679 12.0688 47.0026 18.4449C45.1679 20.2897 44.3366 20.8807 43.3331 20.8807C42.8343 20.8807 42.11 20.2837 42.11 18.6121V2.91664C42.11 0.898746 41.5162 0.00323016 39.8596 0.00323016H27.4795C26.9774 -0.026156 26.4841 0.145885 26.1079 0.481629C25.7316 0.817374 25.5032 1.28942 25.4726 1.79426C25.4726 3.7047 28.3108 4.14052 28.6018 9.51362V21.1733C28.6018 23.7285 28.1446 24.1941 27.1411 24.1941C24.4751 24.1941 17.9793 14.3315 14.1257 3.05396C13.3894 0.886808 12.6116 0.00323016 10.5987 0.00323016Z" fill="white"/>
</svg>
